<mxfile host="app.diagrams.net" modified="2023-07-21T20:52:22.454Z" agent="Mozilla/5.0 (Macintosh; Intel Mac OS X 10_15_7) AppleWebKit/537.36 (KHTML, like Gecko) Chrome/114.0.0.0 Safari/537.36" etag="RWS1q-2x668ji46Ejhuw" version="21.6.2" type="device">
  <diagram name="Page-1" id="pIs1jfR8QSbnfMj5MZUH">
    <mxGraphModel dx="1705" dy="2429" grid="1" gridSize="10" guides="1" tooltips="1" connect="1" arrows="1" fold="1" page="1" pageScale="1" pageWidth="827" pageHeight="1169" math="0" shadow="0">
      <root>
        <mxCell id="0" />
        <mxCell id="1" parent="0" />
        <mxCell id="pRu6MvqzxngNQLvMv5Ed-4" value="" style="edgeStyle=orthogonalEdgeStyle;rounded=0;orthogonalLoop=1;jettySize=auto;html=1;" parent="1" source="pRu6MvqzxngNQLvMv5Ed-1" target="pRu6MvqzxngNQLvMv5Ed-3" edge="1">
          <mxGeometry relative="1" as="geometry" />
        </mxCell>
        <mxCell id="pRu6MvqzxngNQLvMv5Ed-1" value="Start" style="ellipse;whiteSpace=wrap;html=1;" parent="1" vertex="1">
          <mxGeometry x="1164" width="120" height="80" as="geometry" />
        </mxCell>
        <mxCell id="pRu6MvqzxngNQLvMv5Ed-2" value="&lt;font style=&quot;font-size: 18px;&quot;&gt;&lt;b style=&quot;&quot;&gt;selfcheckout Structure&lt;/b&gt;&lt;br&gt;item_name&lt;br&gt;item_price&lt;br&gt;item_quantity&lt;br&gt;&lt;/font&gt;&lt;div&gt;&lt;font size=&quot;3&quot;&gt;product_info&lt;/font&gt;&lt;/div&gt;&lt;div&gt;&lt;font size=&quot;3&quot;&gt;bag_cost&lt;/font&gt;&lt;/div&gt;&lt;div&gt;&lt;font size=&quot;3&quot;&gt;&lt;div&gt;receipt structure&lt;/div&gt;&lt;div&gt;subTotal&lt;/div&gt;&lt;div&gt;totalTax&lt;/div&gt;&lt;div&gt;totalPrice&lt;/div&gt;&lt;div&gt;TAX&lt;/div&gt;&lt;div&gt;Black Box: Payment&amp;nbsp;&lt;br&gt;&lt;/div&gt;&lt;/font&gt;&lt;/div&gt;" style="text;html=1;align=center;verticalAlign=middle;resizable=0;points=[];autosize=1;strokeColor=none;fillColor=none;" parent="1" vertex="1">
          <mxGeometry x="860" y="-65" width="220" height="250" as="geometry" />
        </mxCell>
        <mxCell id="pRu6MvqzxngNQLvMv5Ed-36" value="" style="edgeStyle=orthogonalEdgeStyle;rounded=0;orthogonalLoop=1;jettySize=auto;html=1;" parent="1" source="pRu6MvqzxngNQLvMv5Ed-3" target="pRu6MvqzxngNQLvMv5Ed-35" edge="1">
          <mxGeometry relative="1" as="geometry" />
        </mxCell>
        <mxCell id="pRu6MvqzxngNQLvMv5Ed-3" value="Prompt user to select the perishable_items -&amp;gt; item_name from the list of perishable items" style="whiteSpace=wrap;html=1;" parent="1" vertex="1">
          <mxGeometry x="1159" y="150" width="130" height="70" as="geometry" />
        </mxCell>
        <mxCell id="pRu6MvqzxngNQLvMv5Ed-14" value="" style="endArrow=none;html=1;rounded=0;entryX=0;entryY=0.5;entryDx=0;entryDy=0;" parent="1" edge="1">
          <mxGeometry width="50" height="50" relative="1" as="geometry">
            <mxPoint x="1044" y="975.41" as="sourcePoint" />
            <mxPoint x="1149" y="975.41" as="targetPoint" />
          </mxGeometry>
        </mxCell>
        <mxCell id="pRu6MvqzxngNQLvMv5Ed-15" value="" style="endArrow=none;html=1;rounded=0;" parent="1" edge="1">
          <mxGeometry width="50" height="50" relative="1" as="geometry">
            <mxPoint x="1044" y="976" as="sourcePoint" />
            <mxPoint x="1044" y="166" as="targetPoint" />
          </mxGeometry>
        </mxCell>
        <mxCell id="pRu6MvqzxngNQLvMv5Ed-16" value="" style="endArrow=classic;html=1;rounded=0;entryX=0;entryY=0.25;entryDx=0;entryDy=0;" parent="1" edge="1">
          <mxGeometry width="50" height="50" relative="1" as="geometry">
            <mxPoint x="1044" y="166" as="sourcePoint" />
            <mxPoint x="1159" y="165.5" as="targetPoint" />
          </mxGeometry>
        </mxCell>
        <mxCell id="pRu6MvqzxngNQLvMv5Ed-22" value="" style="edgeStyle=orthogonalEdgeStyle;rounded=0;orthogonalLoop=1;jettySize=auto;html=1;" parent="1" source="pRu6MvqzxngNQLvMv5Ed-19" target="pRu6MvqzxngNQLvMv5Ed-21" edge="1">
          <mxGeometry relative="1" as="geometry" />
        </mxCell>
        <mxCell id="pRu6MvqzxngNQLvMv5Ed-19" value="Do the blackbox method of data lookup for product info and decide weather to cost by-weight or by-quantity" style="whiteSpace=wrap;html=1;" parent="1" vertex="1">
          <mxGeometry x="1156.5" y="410" width="135" height="80" as="geometry" />
        </mxCell>
        <mxCell id="pRu6MvqzxngNQLvMv5Ed-24" value="" style="edgeStyle=orthogonalEdgeStyle;rounded=0;orthogonalLoop=1;jettySize=auto;html=1;" parent="1" source="pRu6MvqzxngNQLvMv5Ed-21" target="pRu6MvqzxngNQLvMv5Ed-23" edge="1">
          <mxGeometry relative="1" as="geometry" />
        </mxCell>
        <mxCell id="pRu6MvqzxngNQLvMv5Ed-41" style="edgeStyle=orthogonalEdgeStyle;rounded=0;orthogonalLoop=1;jettySize=auto;html=1;entryX=0.5;entryY=0;entryDx=0;entryDy=0;" parent="1" source="pRu6MvqzxngNQLvMv5Ed-21" edge="1">
          <mxGeometry relative="1" as="geometry">
            <mxPoint x="1434" y="670" as="targetPoint" />
          </mxGeometry>
        </mxCell>
        <mxCell id="pRu6MvqzxngNQLvMv5Ed-21" value="Is the price &lt;br&gt;determined by weight?" style="rhombus;whiteSpace=wrap;html=1;" parent="1" vertex="1">
          <mxGeometry x="1149" y="540" width="150" height="130" as="geometry" />
        </mxCell>
        <mxCell id="pRu6MvqzxngNQLvMv5Ed-28" value="" style="edgeStyle=orthogonalEdgeStyle;rounded=0;orthogonalLoop=1;jettySize=auto;html=1;" parent="1" source="pRu6MvqzxngNQLvMv5Ed-23" target="pRu6MvqzxngNQLvMv5Ed-27" edge="1">
          <mxGeometry relative="1" as="geometry" />
        </mxCell>
        <mxCell id="pRu6MvqzxngNQLvMv5Ed-23" value="Do the blackbox method for&amp;nbsp;Weigh Item (scale) and determine the price by cost/weight value and store it in perishable_items -&amp;gt; item_price" style="whiteSpace=wrap;html=1;" parent="1" vertex="1">
          <mxGeometry x="1146" y="730" width="155" height="90" as="geometry" />
        </mxCell>
        <mxCell id="pRu6MvqzxngNQLvMv5Ed-25" value="Yes" style="text;html=1;align=center;verticalAlign=middle;resizable=0;points=[];autosize=1;strokeColor=none;fillColor=none;" parent="1" vertex="1">
          <mxGeometry x="1215" y="686" width="40" height="30" as="geometry" />
        </mxCell>
        <mxCell id="pRu6MvqzxngNQLvMv5Ed-30" value="" style="edgeStyle=orthogonalEdgeStyle;rounded=0;orthogonalLoop=1;jettySize=auto;html=1;" parent="1" source="pRu6MvqzxngNQLvMv5Ed-27" target="pRu6MvqzxngNQLvMv5Ed-29" edge="1">
          <mxGeometry relative="1" as="geometry" />
        </mxCell>
        <mxCell id="pRu6MvqzxngNQLvMv5Ed-27" value="Is this all the products &lt;br&gt;user wants to buy?" style="rhombus;whiteSpace=wrap;html=1;" parent="1" vertex="1">
          <mxGeometry x="1144" y="900" width="160" height="150" as="geometry" />
        </mxCell>
        <mxCell id="pRu6MvqzxngNQLvMv5Ed-29" value="update&amp;nbsp;selfcheckout -&amp;gt; perishable_items structure" style="whiteSpace=wrap;html=1;" parent="1" vertex="1">
          <mxGeometry x="1164" y="1140" width="120" height="60" as="geometry" />
        </mxCell>
        <mxCell id="pRu6MvqzxngNQLvMv5Ed-31" value="Yes" style="text;html=1;align=center;verticalAlign=middle;resizable=0;points=[];autosize=1;strokeColor=none;fillColor=none;" parent="1" vertex="1">
          <mxGeometry x="1215" y="1080" width="40" height="30" as="geometry" />
        </mxCell>
        <mxCell id="pRu6MvqzxngNQLvMv5Ed-32" value="No" style="text;html=1;align=center;verticalAlign=middle;resizable=0;points=[];autosize=1;strokeColor=none;fillColor=none;" parent="1" vertex="1">
          <mxGeometry x="1074" y="950" width="40" height="30" as="geometry" />
        </mxCell>
        <mxCell id="pRu6MvqzxngNQLvMv5Ed-43" style="edgeStyle=orthogonalEdgeStyle;rounded=0;orthogonalLoop=1;jettySize=auto;html=1;entryX=1;entryY=0.5;entryDx=0;entryDy=0;" parent="1" target="pRu6MvqzxngNQLvMv5Ed-27" edge="1">
          <mxGeometry relative="1" as="geometry">
            <Array as="points">
              <mxPoint x="1434" y="975" />
            </Array>
            <mxPoint x="1434" y="900" as="sourcePoint" />
          </mxGeometry>
        </mxCell>
        <mxCell id="pRu6MvqzxngNQLvMv5Ed-34" value="Determine the price of the items by using perishable_items -&amp;gt; item_quantity using cost/quantity value and store it in perishable_items -&amp;gt; item_price" style="whiteSpace=wrap;html=1;" parent="1" vertex="1">
          <mxGeometry x="1345" y="805" width="170" height="100" as="geometry" />
        </mxCell>
        <mxCell id="pRu6MvqzxngNQLvMv5Ed-38" value="" style="edgeStyle=orthogonalEdgeStyle;rounded=0;orthogonalLoop=1;jettySize=auto;html=1;" parent="1" source="pRu6MvqzxngNQLvMv5Ed-35" target="pRu6MvqzxngNQLvMv5Ed-19" edge="1">
          <mxGeometry relative="1" as="geometry" />
        </mxCell>
        <mxCell id="pRu6MvqzxngNQLvMv5Ed-35" value="Do the blackbox method of&amp;nbsp;Fetch Products by Category by using the input given by the user" style="whiteSpace=wrap;html=1;" parent="1" vertex="1">
          <mxGeometry x="1159" y="280" width="130" height="70" as="geometry" />
        </mxCell>
        <mxCell id="pRu6MvqzxngNQLvMv5Ed-44" value="" style="edgeStyle=orthogonalEdgeStyle;rounded=0;orthogonalLoop=1;jettySize=auto;html=1;" parent="1" edge="1">
          <mxGeometry relative="1" as="geometry">
            <mxPoint x="1434" y="740" as="sourcePoint" />
            <mxPoint x="1434" y="800" as="targetPoint" />
          </mxGeometry>
        </mxCell>
        <mxCell id="pRu6MvqzxngNQLvMv5Ed-40" value="Prompt user to enter the quantity and store it in perishable_items -&amp;gt; quantity" style="whiteSpace=wrap;html=1;" parent="1" vertex="1">
          <mxGeometry x="1365" y="675" width="130" height="70" as="geometry" />
        </mxCell>
        <mxCell id="pRu6MvqzxngNQLvMv5Ed-42" value="No" style="text;html=1;align=center;verticalAlign=middle;resizable=0;points=[];autosize=1;strokeColor=none;fillColor=none;" parent="1" vertex="1">
          <mxGeometry x="1344" y="578" width="40" height="30" as="geometry" />
        </mxCell>
        <mxCell id="GgnZ6f3uAfLz8zsoU3rS-1" value="" style="edgeStyle=orthogonalEdgeStyle;rounded=0;orthogonalLoop=1;jettySize=auto;html=1;" edge="1" parent="1" source="GgnZ6f3uAfLz8zsoU3rS-2" target="GgnZ6f3uAfLz8zsoU3rS-4">
          <mxGeometry relative="1" as="geometry" />
        </mxCell>
        <mxCell id="GgnZ6f3uAfLz8zsoU3rS-2" value="Start" style="strokeWidth=2;html=1;shape=mxgraph.flowchart.start_1;whiteSpace=wrap;" vertex="1" parent="1">
          <mxGeometry x="1690.1399999999999" width="90" height="50" as="geometry" />
        </mxCell>
        <mxCell id="GgnZ6f3uAfLz8zsoU3rS-3" value="" style="edgeStyle=orthogonalEdgeStyle;rounded=0;orthogonalLoop=1;jettySize=auto;html=1;" edge="1" parent="1" source="GgnZ6f3uAfLz8zsoU3rS-4" target="GgnZ6f3uAfLz8zsoU3rS-7">
          <mxGeometry relative="1" as="geometry" />
        </mxCell>
        <mxCell id="GgnZ6f3uAfLz8zsoU3rS-4" value="Scan the product barcode" style="whiteSpace=wrap;html=1;strokeWidth=2;" vertex="1" parent="1">
          <mxGeometry x="1675.1399999999999" y="90" width="120" height="60" as="geometry" />
        </mxCell>
        <mxCell id="GgnZ6f3uAfLz8zsoU3rS-5" value="" style="edgeStyle=orthogonalEdgeStyle;rounded=0;orthogonalLoop=1;jettySize=auto;html=1;" edge="1" parent="1" source="GgnZ6f3uAfLz8zsoU3rS-7" target="GgnZ6f3uAfLz8zsoU3rS-8">
          <mxGeometry relative="1" as="geometry" />
        </mxCell>
        <mxCell id="GgnZ6f3uAfLz8zsoU3rS-6" value="" style="edgeStyle=orthogonalEdgeStyle;rounded=0;orthogonalLoop=1;jettySize=auto;html=1;" edge="1" parent="1" source="GgnZ6f3uAfLz8zsoU3rS-7" target="GgnZ6f3uAfLz8zsoU3rS-11">
          <mxGeometry relative="1" as="geometry" />
        </mxCell>
        <mxCell id="GgnZ6f3uAfLz8zsoU3rS-7" value="Is barcode scan successful?" style="rhombus;whiteSpace=wrap;html=1;strokeWidth=2;" vertex="1" parent="1">
          <mxGeometry x="1670.1399999999999" y="200" width="130" height="100" as="geometry" />
        </mxCell>
        <mxCell id="GgnZ6f3uAfLz8zsoU3rS-8" value="Ask to manually enter barcode number using keyboard" style="whiteSpace=wrap;html=1;strokeWidth=2;" vertex="1" parent="1">
          <mxGeometry x="1885.1399999999999" y="220" width="120" height="60" as="geometry" />
        </mxCell>
        <mxCell id="GgnZ6f3uAfLz8zsoU3rS-9" value="No" style="text;html=1;align=center;verticalAlign=middle;resizable=0;points=[];autosize=1;strokeColor=none;fillColor=none;" vertex="1" parent="1">
          <mxGeometry x="1810.1399999999999" y="220" width="40" height="30" as="geometry" />
        </mxCell>
        <mxCell id="GgnZ6f3uAfLz8zsoU3rS-10" value="" style="edgeStyle=orthogonalEdgeStyle;rounded=0;orthogonalLoop=1;jettySize=auto;html=1;" edge="1" parent="1" source="GgnZ6f3uAfLz8zsoU3rS-11" target="GgnZ6f3uAfLz8zsoU3rS-15">
          <mxGeometry relative="1" as="geometry" />
        </mxCell>
        <mxCell id="GgnZ6f3uAfLz8zsoU3rS-11" value="Look product_Info from process Data Lookup" style="whiteSpace=wrap;html=1;strokeWidth=2;" vertex="1" parent="1">
          <mxGeometry x="1675.1399999999999" y="360" width="120" height="60" as="geometry" />
        </mxCell>
        <mxCell id="GgnZ6f3uAfLz8zsoU3rS-12" value="Yes" style="text;html=1;align=center;verticalAlign=middle;resizable=0;points=[];autosize=1;strokeColor=none;fillColor=none;" vertex="1" parent="1">
          <mxGeometry x="1730.1399999999999" y="308" width="40" height="30" as="geometry" />
        </mxCell>
        <mxCell id="GgnZ6f3uAfLz8zsoU3rS-13" value="" style="edgeStyle=orthogonalEdgeStyle;rounded=0;orthogonalLoop=1;jettySize=auto;html=1;" edge="1" parent="1" source="GgnZ6f3uAfLz8zsoU3rS-15" target="GgnZ6f3uAfLz8zsoU3rS-17">
          <mxGeometry relative="1" as="geometry" />
        </mxCell>
        <mxCell id="GgnZ6f3uAfLz8zsoU3rS-14" value="" style="edgeStyle=orthogonalEdgeStyle;rounded=0;orthogonalLoop=1;jettySize=auto;html=1;" edge="1" parent="1" source="GgnZ6f3uAfLz8zsoU3rS-15" target="GgnZ6f3uAfLz8zsoU3rS-27">
          <mxGeometry relative="1" as="geometry" />
        </mxCell>
        <mxCell id="GgnZ6f3uAfLz8zsoU3rS-15" value="Is product_Info &lt;br&gt;found?" style="rhombus;whiteSpace=wrap;html=1;strokeWidth=2;" vertex="1" parent="1">
          <mxGeometry x="1670.1399999999999" y="470" width="130" height="110" as="geometry" />
        </mxCell>
        <mxCell id="GgnZ6f3uAfLz8zsoU3rS-16" value="" style="edgeStyle=orthogonalEdgeStyle;rounded=0;orthogonalLoop=1;jettySize=auto;html=1;" edge="1" parent="1" source="GgnZ6f3uAfLz8zsoU3rS-17" target="GgnZ6f3uAfLz8zsoU3rS-20">
          <mxGeometry relative="1" as="geometry" />
        </mxCell>
        <mxCell id="GgnZ6f3uAfLz8zsoU3rS-17" value="Display product_Info on the screen" style="whiteSpace=wrap;html=1;strokeWidth=2;" vertex="1" parent="1">
          <mxGeometry x="1675.1399999999999" y="640" width="120" height="60" as="geometry" />
        </mxCell>
        <mxCell id="GgnZ6f3uAfLz8zsoU3rS-18" value="Yes" style="text;html=1;align=center;verticalAlign=middle;resizable=0;points=[];autosize=1;strokeColor=none;fillColor=none;" vertex="1" parent="1">
          <mxGeometry x="1730.1399999999999" y="590" width="40" height="30" as="geometry" />
        </mxCell>
        <mxCell id="GgnZ6f3uAfLz8zsoU3rS-19" value="" style="edgeStyle=orthogonalEdgeStyle;rounded=0;orthogonalLoop=1;jettySize=auto;html=1;" edge="1" parent="1" source="GgnZ6f3uAfLz8zsoU3rS-20" target="GgnZ6f3uAfLz8zsoU3rS-24">
          <mxGeometry relative="1" as="geometry" />
        </mxCell>
        <mxCell id="GgnZ6f3uAfLz8zsoU3rS-20" value="Add product_Info to Receipt-&amp;gt; purchase list" style="whiteSpace=wrap;html=1;strokeWidth=2;" vertex="1" parent="1">
          <mxGeometry x="1675.1399999999999" y="750" width="120" height="60" as="geometry" />
        </mxCell>
        <mxCell id="GgnZ6f3uAfLz8zsoU3rS-21" value="" style="edgeStyle=orthogonalEdgeStyle;rounded=0;orthogonalLoop=1;jettySize=auto;html=1;entryX=0.5;entryY=0;entryDx=0;entryDy=0;" edge="1" parent="1" source="GgnZ6f3uAfLz8zsoU3rS-24">
          <mxGeometry relative="1" as="geometry">
            <mxPoint x="1735.1399999999999" y="1010" as="targetPoint" />
          </mxGeometry>
        </mxCell>
        <mxCell id="GgnZ6f3uAfLz8zsoU3rS-22" style="edgeStyle=orthogonalEdgeStyle;rounded=0;orthogonalLoop=1;jettySize=auto;html=1;exitX=0;exitY=0.5;exitDx=0;exitDy=0;entryX=0;entryY=0.25;entryDx=0;entryDy=0;" edge="1" parent="1" source="GgnZ6f3uAfLz8zsoU3rS-24" target="GgnZ6f3uAfLz8zsoU3rS-4">
          <mxGeometry relative="1" as="geometry">
            <Array as="points">
              <mxPoint x="1580.1399999999999" y="905" />
              <mxPoint x="1580.1399999999999" y="105" />
            </Array>
          </mxGeometry>
        </mxCell>
        <mxCell id="GgnZ6f3uAfLz8zsoU3rS-23" value="Yes" style="edgeLabel;html=1;align=center;verticalAlign=middle;resizable=0;points=[];" vertex="1" connectable="0" parent="GgnZ6f3uAfLz8zsoU3rS-22">
          <mxGeometry x="-0.922" y="-10" relative="1" as="geometry">
            <mxPoint as="offset" />
          </mxGeometry>
        </mxCell>
        <mxCell id="GgnZ6f3uAfLz8zsoU3rS-24" value="Are there more items?" style="rhombus;whiteSpace=wrap;html=1;strokeWidth=2;" vertex="1" parent="1">
          <mxGeometry x="1680.1399999999999" y="860" width="110" height="90" as="geometry" />
        </mxCell>
        <mxCell id="GgnZ6f3uAfLz8zsoU3rS-25" value="No" style="text;html=1;align=center;verticalAlign=middle;resizable=0;points=[];autosize=1;strokeColor=none;fillColor=none;" vertex="1" parent="1">
          <mxGeometry x="1730.1399999999999" y="958" width="40" height="30" as="geometry" />
        </mxCell>
        <mxCell id="GgnZ6f3uAfLz8zsoU3rS-26" value="" style="edgeStyle=orthogonalEdgeStyle;rounded=0;orthogonalLoop=1;jettySize=auto;html=1;" edge="1" parent="1" source="GgnZ6f3uAfLz8zsoU3rS-27" target="GgnZ6f3uAfLz8zsoU3rS-29">
          <mxGeometry relative="1" as="geometry" />
        </mxCell>
        <mxCell id="GgnZ6f3uAfLz8zsoU3rS-27" value="Display &quot;Product not found, please! wait for staff members&quot;" style="whiteSpace=wrap;html=1;strokeWidth=2;" vertex="1" parent="1">
          <mxGeometry x="1885.1399999999999" y="495" width="120" height="60" as="geometry" />
        </mxCell>
        <mxCell id="GgnZ6f3uAfLz8zsoU3rS-28" value="No" style="text;html=1;align=center;verticalAlign=middle;resizable=0;points=[];autosize=1;strokeColor=none;fillColor=none;" vertex="1" parent="1">
          <mxGeometry x="1820.1399999999999" y="495" width="40" height="30" as="geometry" />
        </mxCell>
        <mxCell id="GgnZ6f3uAfLz8zsoU3rS-29" value="Alert staff members about the problem." style="whiteSpace=wrap;html=1;strokeWidth=2;" vertex="1" parent="1">
          <mxGeometry x="1885.1399999999999" y="640" width="120" height="60" as="geometry" />
        </mxCell>
        <mxCell id="GgnZ6f3uAfLz8zsoU3rS-30" value="" style="edgeStyle=orthogonalEdgeStyle;rounded=0;orthogonalLoop=1;jettySize=auto;html=1;" edge="1" parent="1" source="GgnZ6f3uAfLz8zsoU3rS-32">
          <mxGeometry relative="1" as="geometry">
            <mxPoint x="1735.1399999999999" y="1160" as="targetPoint" />
          </mxGeometry>
        </mxCell>
        <mxCell id="GgnZ6f3uAfLz8zsoU3rS-31" value="" style="edgeStyle=orthogonalEdgeStyle;rounded=0;orthogonalLoop=1;jettySize=auto;html=1;" edge="1" parent="1" source="GgnZ6f3uAfLz8zsoU3rS-32" target="GgnZ6f3uAfLz8zsoU3rS-37">
          <mxGeometry relative="1" as="geometry" />
        </mxCell>
        <mxCell id="GgnZ6f3uAfLz8zsoU3rS-32" value="Do customer need bags?" style="strokeWidth=2;html=1;shape=mxgraph.flowchart.decision;whiteSpace=wrap;" vertex="1" parent="1">
          <mxGeometry x="1670.1399999999999" y="1010" width="130" height="100" as="geometry" />
        </mxCell>
        <mxCell id="GgnZ6f3uAfLz8zsoU3rS-33" value="" style="edgeStyle=orthogonalEdgeStyle;rounded=0;orthogonalLoop=1;jettySize=auto;html=1;" edge="1" parent="1" source="GgnZ6f3uAfLz8zsoU3rS-34" target="GgnZ6f3uAfLz8zsoU3rS-42">
          <mxGeometry relative="1" as="geometry" />
        </mxCell>
        <mxCell id="GgnZ6f3uAfLz8zsoU3rS-34" value="Add Taxes and calculate Receipt-&amp;gt;item_price" style="whiteSpace=wrap;html=1;strokeWidth=2;" vertex="1" parent="1">
          <mxGeometry x="1675.1399999999999" y="1160" width="120" height="60" as="geometry" />
        </mxCell>
        <mxCell id="GgnZ6f3uAfLz8zsoU3rS-35" value="No" style="text;html=1;align=center;verticalAlign=middle;resizable=0;points=[];autosize=1;strokeColor=none;fillColor=none;" vertex="1" parent="1">
          <mxGeometry x="1730.1399999999999" y="1118" width="40" height="30" as="geometry" />
        </mxCell>
        <mxCell id="GgnZ6f3uAfLz8zsoU3rS-36" value="" style="edgeStyle=orthogonalEdgeStyle;rounded=0;orthogonalLoop=1;jettySize=auto;html=1;" edge="1" parent="1" source="GgnZ6f3uAfLz8zsoU3rS-37" target="GgnZ6f3uAfLz8zsoU3rS-40">
          <mxGeometry relative="1" as="geometry" />
        </mxCell>
        <mxCell id="GgnZ6f3uAfLz8zsoU3rS-37" value="Prompt user to enter number of bags" style="whiteSpace=wrap;html=1;strokeWidth=2;" vertex="1" parent="1">
          <mxGeometry x="1840.1399999999999" y="1030" width="120" height="60" as="geometry" />
        </mxCell>
        <mxCell id="GgnZ6f3uAfLz8zsoU3rS-38" value="Yes" style="text;html=1;align=center;verticalAlign=middle;resizable=0;points=[];autosize=1;strokeColor=none;fillColor=none;" vertex="1" parent="1">
          <mxGeometry x="1790.1399999999999" y="1038" width="40" height="30" as="geometry" />
        </mxCell>
        <mxCell id="GgnZ6f3uAfLz8zsoU3rS-39" style="edgeStyle=orthogonalEdgeStyle;rounded=0;orthogonalLoop=1;jettySize=auto;html=1;exitX=0.5;exitY=1;exitDx=0;exitDy=0;entryX=1;entryY=0.5;entryDx=0;entryDy=0;" edge="1" parent="1" source="GgnZ6f3uAfLz8zsoU3rS-40" target="GgnZ6f3uAfLz8zsoU3rS-34">
          <mxGeometry relative="1" as="geometry" />
        </mxCell>
        <mxCell id="GgnZ6f3uAfLz8zsoU3rS-40" value="Add Receipt-&amp;gt;bag_cost to Receipt-&amp;gt;item_price" style="whiteSpace=wrap;html=1;strokeWidth=2;" vertex="1" parent="1">
          <mxGeometry x="2005.1399999999999" y="1030" width="120" height="60" as="geometry" />
        </mxCell>
        <mxCell id="GgnZ6f3uAfLz8zsoU3rS-74" value="" style="edgeStyle=orthogonalEdgeStyle;rounded=0;orthogonalLoop=1;jettySize=auto;html=1;" edge="1" parent="1" source="GgnZ6f3uAfLz8zsoU3rS-42">
          <mxGeometry relative="1" as="geometry">
            <mxPoint x="1735.1399999999994" y="1400" as="targetPoint" />
          </mxGeometry>
        </mxCell>
        <mxCell id="GgnZ6f3uAfLz8zsoU3rS-42" value="Go to Payment stage" style="whiteSpace=wrap;html=1;strokeWidth=2;" vertex="1" parent="1">
          <mxGeometry x="1675.1399999999999" y="1260" width="120" height="60" as="geometry" />
        </mxCell>
        <mxCell id="GgnZ6f3uAfLz8zsoU3rS-75" value="End" style="strokeWidth=2;html=1;shape=mxgraph.flowchart.start_1;whiteSpace=wrap;" vertex="1" parent="1">
          <mxGeometry x="1685.1399999999999" y="1510" width="100" height="60" as="geometry" />
        </mxCell>
        <mxCell id="GgnZ6f3uAfLz8zsoU3rS-79" value="" style="edgeStyle=orthogonalEdgeStyle;rounded=0;orthogonalLoop=1;jettySize=auto;html=1;" edge="1" parent="1" source="GgnZ6f3uAfLz8zsoU3rS-76" target="GgnZ6f3uAfLz8zsoU3rS-75">
          <mxGeometry relative="1" as="geometry" />
        </mxCell>
        <mxCell id="GgnZ6f3uAfLz8zsoU3rS-76" value="update selfcheckout &lt;br&gt;-&amp;gt; non_perishable_items structure" style="whiteSpace=wrap;html=1;" vertex="1" parent="1">
          <mxGeometry x="1675.1399999999999" y="1400" width="120" height="60" as="geometry" />
        </mxCell>
        <mxCell id="GgnZ6f3uAfLz8zsoU3rS-80" value="&lt;b&gt;&lt;font style=&quot;font-size: 24px;&quot;&gt;Main Process&lt;/font&gt;&lt;/b&gt;" style="text;html=1;align=center;verticalAlign=middle;resizable=0;points=[];autosize=1;strokeColor=none;fillColor=none;" vertex="1" parent="1">
          <mxGeometry x="3000" y="5" width="180" height="40" as="geometry" />
        </mxCell>
        <mxCell id="GgnZ6f3uAfLz8zsoU3rS-109" value="" style="edgeStyle=orthogonalEdgeStyle;rounded=0;orthogonalLoop=1;jettySize=auto;html=1;" edge="1" parent="1" source="GgnZ6f3uAfLz8zsoU3rS-110">
          <mxGeometry relative="1" as="geometry">
            <mxPoint x="2420" y="100" as="targetPoint" />
          </mxGeometry>
        </mxCell>
        <mxCell id="GgnZ6f3uAfLz8zsoU3rS-110" value="start" style="ellipse;whiteSpace=wrap;html=1;" vertex="1" parent="1">
          <mxGeometry x="2360" width="120" height="60" as="geometry" />
        </mxCell>
        <mxCell id="GgnZ6f3uAfLz8zsoU3rS-111" value="" style="edgeStyle=orthogonalEdgeStyle;rounded=0;orthogonalLoop=1;jettySize=auto;html=1;" edge="1" parent="1" source="GgnZ6f3uAfLz8zsoU3rS-112">
          <mxGeometry relative="1" as="geometry">
            <mxPoint x="2420" y="360" as="targetPoint" />
          </mxGeometry>
        </mxCell>
        <mxCell id="GgnZ6f3uAfLz8zsoU3rS-112" value="Receive List of perishable and non-perishable items&amp;nbsp;" style="rounded=1;whiteSpace=wrap;html=1;" vertex="1" parent="1">
          <mxGeometry x="2360" y="260" width="120" height="60" as="geometry" />
        </mxCell>
        <mxCell id="GgnZ6f3uAfLz8zsoU3rS-113" value="" style="edgeStyle=orthogonalEdgeStyle;rounded=0;orthogonalLoop=1;jettySize=auto;html=1;" edge="1" parent="1" source="GgnZ6f3uAfLz8zsoU3rS-115">
          <mxGeometry relative="1" as="geometry">
            <mxPoint x="2420" y="600" as="targetPoint" />
          </mxGeometry>
        </mxCell>
        <mxCell id="GgnZ6f3uAfLz8zsoU3rS-114" value="" style="edgeStyle=orthogonalEdgeStyle;rounded=0;orthogonalLoop=1;jettySize=auto;html=1;" edge="1" parent="1" source="GgnZ6f3uAfLz8zsoU3rS-115" target="GgnZ6f3uAfLz8zsoU3rS-125">
          <mxGeometry relative="1" as="geometry" />
        </mxCell>
        <mxCell id="GgnZ6f3uAfLz8zsoU3rS-115" value="is item Non-Perishable?" style="rhombus;whiteSpace=wrap;html=1;" vertex="1" parent="1">
          <mxGeometry x="2360" y="460" width="120" height="100" as="geometry" />
        </mxCell>
        <mxCell id="GgnZ6f3uAfLz8zsoU3rS-116" value="" style="edgeStyle=orthogonalEdgeStyle;rounded=0;orthogonalLoop=1;jettySize=auto;html=1;" edge="1" parent="1" source="GgnZ6f3uAfLz8zsoU3rS-117" target="GgnZ6f3uAfLz8zsoU3rS-112">
          <mxGeometry relative="1" as="geometry" />
        </mxCell>
        <mxCell id="GgnZ6f3uAfLz8zsoU3rS-117" value="INPUT: receipt structure&lt;br&gt;initialize:&lt;br&gt;receipt-&amp;gt;subTotal=0&lt;br&gt;receipt-&amp;gt;totalTax=0&lt;br&gt;TAX = 0.13" style="rounded=1;whiteSpace=wrap;html=1;" vertex="1" parent="1">
          <mxGeometry x="2320" y="100" width="200" height="120" as="geometry" />
        </mxCell>
        <mxCell id="GgnZ6f3uAfLz8zsoU3rS-118" value="" style="edgeStyle=orthogonalEdgeStyle;rounded=0;orthogonalLoop=1;jettySize=auto;html=1;" edge="1" parent="1" source="GgnZ6f3uAfLz8zsoU3rS-119" target="GgnZ6f3uAfLz8zsoU3rS-115">
          <mxGeometry relative="1" as="geometry" />
        </mxCell>
        <mxCell id="GgnZ6f3uAfLz8zsoU3rS-119" value="Scan Items" style="rounded=1;whiteSpace=wrap;html=1;" vertex="1" parent="1">
          <mxGeometry x="2360" y="360" width="120" height="60" as="geometry" />
        </mxCell>
        <mxCell id="GgnZ6f3uAfLz8zsoU3rS-121" value="Yes" style="text;html=1;strokeColor=none;fillColor=none;align=center;verticalAlign=middle;whiteSpace=wrap;rounded=0;" vertex="1" parent="1">
          <mxGeometry x="2410" y="560" width="60" height="30" as="geometry" />
        </mxCell>
        <mxCell id="GgnZ6f3uAfLz8zsoU3rS-122" style="edgeStyle=orthogonalEdgeStyle;rounded=0;orthogonalLoop=1;jettySize=auto;html=1;" edge="1" parent="1" source="GgnZ6f3uAfLz8zsoU3rS-123">
          <mxGeometry relative="1" as="geometry">
            <mxPoint x="2520" y="820" as="targetPoint" />
          </mxGeometry>
        </mxCell>
        <mxCell id="GgnZ6f3uAfLz8zsoU3rS-123" value="Add&lt;br style=&quot;border-color: var(--border-color);&quot;&gt;item to Itemized Receipt" style="rounded=1;whiteSpace=wrap;html=1;" vertex="1" parent="1">
          <mxGeometry x="2360" y="720" width="120" height="60" as="geometry" />
        </mxCell>
        <mxCell id="GgnZ6f3uAfLz8zsoU3rS-124" style="edgeStyle=orthogonalEdgeStyle;rounded=0;orthogonalLoop=1;jettySize=auto;html=1;exitX=0.5;exitY=1;exitDx=0;exitDy=0;entryX=0.5;entryY=0;entryDx=0;entryDy=0;" edge="1" parent="1" source="GgnZ6f3uAfLz8zsoU3rS-125" target="GgnZ6f3uAfLz8zsoU3rS-132">
          <mxGeometry relative="1" as="geometry">
            <mxPoint x="2580" y="600" as="targetPoint" />
            <Array as="points">
              <mxPoint x="2620" y="600" />
              <mxPoint x="2620" y="600" />
            </Array>
          </mxGeometry>
        </mxCell>
        <mxCell id="GgnZ6f3uAfLz8zsoU3rS-125" value="Determine Item Weight or Quantity" style="rounded=1;whiteSpace=wrap;html=1;" vertex="1" parent="1">
          <mxGeometry x="2560" y="480" width="120" height="60" as="geometry" />
        </mxCell>
        <mxCell id="GgnZ6f3uAfLz8zsoU3rS-126" value="No" style="text;html=1;strokeColor=none;fillColor=none;align=center;verticalAlign=middle;whiteSpace=wrap;rounded=0;" vertex="1" parent="1">
          <mxGeometry x="2470" y="480" width="60" height="30" as="geometry" />
        </mxCell>
        <mxCell id="GgnZ6f3uAfLz8zsoU3rS-127" style="edgeStyle=orthogonalEdgeStyle;rounded=0;orthogonalLoop=1;jettySize=auto;html=1;" edge="1" parent="1" source="GgnZ6f3uAfLz8zsoU3rS-128">
          <mxGeometry relative="1" as="geometry">
            <mxPoint x="2520" y="820" as="targetPoint" />
          </mxGeometry>
        </mxCell>
        <mxCell id="GgnZ6f3uAfLz8zsoU3rS-128" value="Add item to Itemized Receipt with &lt;br&gt;weight or quantity" style="rounded=1;whiteSpace=wrap;html=1;" vertex="1" parent="1">
          <mxGeometry x="2560" y="720" width="120" height="60" as="geometry" />
        </mxCell>
        <mxCell id="GgnZ6f3uAfLz8zsoU3rS-129" value="" style="edgeStyle=orthogonalEdgeStyle;rounded=0;orthogonalLoop=1;jettySize=auto;html=1;" edge="1" parent="1" source="GgnZ6f3uAfLz8zsoU3rS-130" target="GgnZ6f3uAfLz8zsoU3rS-123">
          <mxGeometry relative="1" as="geometry" />
        </mxCell>
        <mxCell id="GgnZ6f3uAfLz8zsoU3rS-130" value="determine &lt;br&gt;receipt-&amp;gt;item_price" style="rounded=1;whiteSpace=wrap;html=1;" vertex="1" parent="1">
          <mxGeometry x="2360" y="600" width="120" height="60" as="geometry" />
        </mxCell>
        <mxCell id="GgnZ6f3uAfLz8zsoU3rS-131" value="" style="edgeStyle=orthogonalEdgeStyle;rounded=0;orthogonalLoop=1;jettySize=auto;html=1;" edge="1" parent="1" source="GgnZ6f3uAfLz8zsoU3rS-132" target="GgnZ6f3uAfLz8zsoU3rS-128">
          <mxGeometry relative="1" as="geometry" />
        </mxCell>
        <mxCell id="GgnZ6f3uAfLz8zsoU3rS-132" value="determine&lt;br&gt;receipt-&amp;gt;item_price" style="rounded=1;whiteSpace=wrap;html=1;" vertex="1" parent="1">
          <mxGeometry x="2560" y="600" width="120" height="60" as="geometry" />
        </mxCell>
        <mxCell id="GgnZ6f3uAfLz8zsoU3rS-133" value="" style="edgeStyle=orthogonalEdgeStyle;rounded=0;orthogonalLoop=1;jettySize=auto;html=1;" edge="1" parent="1" source="GgnZ6f3uAfLz8zsoU3rS-134" target="GgnZ6f3uAfLz8zsoU3rS-137">
          <mxGeometry relative="1" as="geometry" />
        </mxCell>
        <mxCell id="GgnZ6f3uAfLz8zsoU3rS-134" value="receipt-&amp;gt;subTotal&lt;br&gt;= receipt-&amp;gt;item_price+&lt;br&gt;receipt-&amp;gt;subTotal" style="rounded=1;whiteSpace=wrap;html=1;" vertex="1" parent="1">
          <mxGeometry x="2460" y="820" width="120" height="60" as="geometry" />
        </mxCell>
        <mxCell id="GgnZ6f3uAfLz8zsoU3rS-135" value="" style="edgeStyle=orthogonalEdgeStyle;rounded=0;orthogonalLoop=1;jettySize=auto;html=1;" edge="1" parent="1" source="GgnZ6f3uAfLz8zsoU3rS-137" target="GgnZ6f3uAfLz8zsoU3rS-139">
          <mxGeometry relative="1" as="geometry" />
        </mxCell>
        <mxCell id="GgnZ6f3uAfLz8zsoU3rS-136" style="edgeStyle=orthogonalEdgeStyle;rounded=0;orthogonalLoop=1;jettySize=auto;html=1;exitX=1;exitY=0.5;exitDx=0;exitDy=0;" edge="1" parent="1" source="GgnZ6f3uAfLz8zsoU3rS-137">
          <mxGeometry relative="1" as="geometry">
            <mxPoint x="2640" y="970" as="targetPoint" />
          </mxGeometry>
        </mxCell>
        <mxCell id="GgnZ6f3uAfLz8zsoU3rS-137" value="is item Taxable?" style="rhombus;whiteSpace=wrap;html=1;" vertex="1" parent="1">
          <mxGeometry x="2460" y="920" width="120" height="100" as="geometry" />
        </mxCell>
        <mxCell id="GgnZ6f3uAfLz8zsoU3rS-138" value="" style="edgeStyle=orthogonalEdgeStyle;rounded=0;orthogonalLoop=1;jettySize=auto;html=1;" edge="1" parent="1" source="GgnZ6f3uAfLz8zsoU3rS-139" target="GgnZ6f3uAfLz8zsoU3rS-146">
          <mxGeometry relative="1" as="geometry" />
        </mxCell>
        <mxCell id="GgnZ6f3uAfLz8zsoU3rS-139" value="receipt-&amp;gt;totalTax =&lt;br&gt;receipt-&amp;gt;totalTax +&lt;br&gt;receipt-&amp;gt;item_price*TAX" style="rounded=1;whiteSpace=wrap;html=1;" vertex="1" parent="1">
          <mxGeometry x="2440" y="1060" width="160" height="60" as="geometry" />
        </mxCell>
        <mxCell id="GgnZ6f3uAfLz8zsoU3rS-141" value="Yes" style="text;html=1;strokeColor=none;fillColor=none;align=center;verticalAlign=middle;whiteSpace=wrap;rounded=0;" vertex="1" parent="1">
          <mxGeometry x="2510" y="1020" width="60" height="30" as="geometry" />
        </mxCell>
        <mxCell id="GgnZ6f3uAfLz8zsoU3rS-142" value="No" style="text;html=1;strokeColor=none;fillColor=none;align=center;verticalAlign=middle;whiteSpace=wrap;rounded=0;" vertex="1" parent="1">
          <mxGeometry x="2570" y="940" width="60" height="30" as="geometry" />
        </mxCell>
        <mxCell id="GgnZ6f3uAfLz8zsoU3rS-143" style="edgeStyle=orthogonalEdgeStyle;rounded=0;orthogonalLoop=1;jettySize=auto;html=1;entryX=1;entryY=0.5;entryDx=0;entryDy=0;" edge="1" parent="1" source="GgnZ6f3uAfLz8zsoU3rS-144" target="GgnZ6f3uAfLz8zsoU3rS-146">
          <mxGeometry relative="1" as="geometry">
            <mxPoint x="2740" y="1220" as="targetPoint" />
            <Array as="points">
              <mxPoint x="2700" y="1190" />
            </Array>
          </mxGeometry>
        </mxCell>
        <mxCell id="GgnZ6f3uAfLz8zsoU3rS-144" value="Display message:&lt;br&gt;Non-Taxable item" style="rounded=1;whiteSpace=wrap;html=1;" vertex="1" parent="1">
          <mxGeometry x="2640" y="940" width="120" height="60" as="geometry" />
        </mxCell>
        <mxCell id="GgnZ6f3uAfLz8zsoU3rS-145" value="" style="edgeStyle=orthogonalEdgeStyle;rounded=0;orthogonalLoop=1;jettySize=auto;html=1;" edge="1" parent="1" source="GgnZ6f3uAfLz8zsoU3rS-146">
          <mxGeometry relative="1" as="geometry">
            <mxPoint x="2520" y="1260" as="targetPoint" />
          </mxGeometry>
        </mxCell>
        <mxCell id="GgnZ6f3uAfLz8zsoU3rS-146" value="receipt-&amp;gt;totalPrice = &lt;br&gt;receipt-&amp;gt;totalTax + &lt;br&gt;receipt-&amp;gt;subTotal" style="rounded=1;whiteSpace=wrap;html=1;" vertex="1" parent="1">
          <mxGeometry x="2440" y="1160" width="160" height="60" as="geometry" />
        </mxCell>
        <mxCell id="GgnZ6f3uAfLz8zsoU3rS-147" style="edgeStyle=orthogonalEdgeStyle;rounded=0;orthogonalLoop=1;jettySize=auto;html=1;entryX=0;entryY=0.5;entryDx=0;entryDy=0;" edge="1" parent="1" source="GgnZ6f3uAfLz8zsoU3rS-149" target="GgnZ6f3uAfLz8zsoU3rS-119">
          <mxGeometry relative="1" as="geometry">
            <Array as="points">
              <mxPoint x="2320" y="1310" />
              <mxPoint x="2320" y="390" />
            </Array>
          </mxGeometry>
        </mxCell>
        <mxCell id="GgnZ6f3uAfLz8zsoU3rS-148" value="" style="edgeStyle=orthogonalEdgeStyle;rounded=0;orthogonalLoop=1;jettySize=auto;html=1;" edge="1" parent="1" source="GgnZ6f3uAfLz8zsoU3rS-149" target="GgnZ6f3uAfLz8zsoU3rS-152">
          <mxGeometry relative="1" as="geometry" />
        </mxCell>
        <mxCell id="GgnZ6f3uAfLz8zsoU3rS-149" value="is any item left?" style="rhombus;whiteSpace=wrap;html=1;" vertex="1" parent="1">
          <mxGeometry x="2460" y="1260" width="120" height="100" as="geometry" />
        </mxCell>
        <mxCell id="GgnZ6f3uAfLz8zsoU3rS-150" value="Yes" style="text;html=1;strokeColor=none;fillColor=none;align=center;verticalAlign=middle;whiteSpace=wrap;rounded=0;" vertex="1" parent="1">
          <mxGeometry x="2410" y="1280" width="60" height="30" as="geometry" />
        </mxCell>
        <mxCell id="GgnZ6f3uAfLz8zsoU3rS-151" value="" style="edgeStyle=orthogonalEdgeStyle;rounded=0;orthogonalLoop=1;jettySize=auto;html=1;" edge="1" parent="1" source="GgnZ6f3uAfLz8zsoU3rS-152" target="GgnZ6f3uAfLz8zsoU3rS-155">
          <mxGeometry relative="1" as="geometry" />
        </mxCell>
        <mxCell id="GgnZ6f3uAfLz8zsoU3rS-152" value="Start Payment Session&amp;nbsp;" style="rounded=1;whiteSpace=wrap;html=1;" vertex="1" parent="1">
          <mxGeometry x="2460" y="1400" width="120" height="60" as="geometry" />
        </mxCell>
        <mxCell id="GgnZ6f3uAfLz8zsoU3rS-153" value="No" style="text;html=1;strokeColor=none;fillColor=none;align=center;verticalAlign=middle;whiteSpace=wrap;rounded=0;" vertex="1" parent="1">
          <mxGeometry x="2510" y="1360" width="60" height="30" as="geometry" />
        </mxCell>
        <mxCell id="GgnZ6f3uAfLz8zsoU3rS-154" value="" style="edgeStyle=orthogonalEdgeStyle;rounded=0;orthogonalLoop=1;jettySize=auto;html=1;" edge="1" parent="1" source="GgnZ6f3uAfLz8zsoU3rS-155" target="GgnZ6f3uAfLz8zsoU3rS-157">
          <mxGeometry relative="1" as="geometry" />
        </mxCell>
        <mxCell id="GgnZ6f3uAfLz8zsoU3rS-155" value="pull-up data for Total price" style="rounded=1;whiteSpace=wrap;html=1;" vertex="1" parent="1">
          <mxGeometry x="2460" y="1500" width="120" height="60" as="geometry" />
        </mxCell>
        <mxCell id="GgnZ6f3uAfLz8zsoU3rS-156" value="" style="edgeStyle=orthogonalEdgeStyle;rounded=0;orthogonalLoop=1;jettySize=auto;html=1;" edge="1" parent="1" source="GgnZ6f3uAfLz8zsoU3rS-157" target="GgnZ6f3uAfLz8zsoU3rS-160">
          <mxGeometry relative="1" as="geometry" />
        </mxCell>
        <mxCell id="GgnZ6f3uAfLz8zsoU3rS-157" value="call 3rd party payment system" style="rounded=1;whiteSpace=wrap;html=1;" vertex="1" parent="1">
          <mxGeometry x="2460" y="1600" width="120" height="60" as="geometry" />
        </mxCell>
        <mxCell id="GgnZ6f3uAfLz8zsoU3rS-158" style="edgeStyle=orthogonalEdgeStyle;rounded=0;orthogonalLoop=1;jettySize=auto;html=1;" edge="1" parent="1" source="GgnZ6f3uAfLz8zsoU3rS-160">
          <mxGeometry relative="1" as="geometry">
            <mxPoint x="2520" y="1830" as="targetPoint" />
          </mxGeometry>
        </mxCell>
        <mxCell id="GgnZ6f3uAfLz8zsoU3rS-159" value="" style="edgeStyle=orthogonalEdgeStyle;rounded=0;orthogonalLoop=1;jettySize=auto;html=1;" edge="1" parent="1" source="GgnZ6f3uAfLz8zsoU3rS-160" target="GgnZ6f3uAfLz8zsoU3rS-166">
          <mxGeometry relative="1" as="geometry" />
        </mxCell>
        <mxCell id="GgnZ6f3uAfLz8zsoU3rS-160" value="is payment&lt;br&gt;&amp;nbsp;successful?&amp;nbsp;" style="rhombus;whiteSpace=wrap;html=1;" vertex="1" parent="1">
          <mxGeometry x="2450" y="1700" width="140" height="90" as="geometry" />
        </mxCell>
        <mxCell id="GgnZ6f3uAfLz8zsoU3rS-161" value="Yes" style="text;html=1;strokeColor=none;fillColor=none;align=center;verticalAlign=middle;whiteSpace=wrap;rounded=0;" vertex="1" parent="1">
          <mxGeometry x="2510" y="1790" width="60" height="30" as="geometry" />
        </mxCell>
        <mxCell id="GgnZ6f3uAfLz8zsoU3rS-162" value="" style="edgeStyle=orthogonalEdgeStyle;rounded=0;orthogonalLoop=1;jettySize=auto;html=1;" edge="1" parent="1" source="GgnZ6f3uAfLz8zsoU3rS-163" target="GgnZ6f3uAfLz8zsoU3rS-164">
          <mxGeometry relative="1" as="geometry" />
        </mxCell>
        <mxCell id="GgnZ6f3uAfLz8zsoU3rS-163" value="Payment Approved&lt;br&gt;Display RECEIPT" style="rounded=1;whiteSpace=wrap;html=1;" vertex="1" parent="1">
          <mxGeometry x="2460" y="1830" width="120" height="60" as="geometry" />
        </mxCell>
        <mxCell id="GgnZ6f3uAfLz8zsoU3rS-164" value="End" style="ellipse;whiteSpace=wrap;html=1;" vertex="1" parent="1">
          <mxGeometry x="2460" y="1930" width="120" height="60" as="geometry" />
        </mxCell>
        <mxCell id="GgnZ6f3uAfLz8zsoU3rS-165" style="edgeStyle=orthogonalEdgeStyle;rounded=0;orthogonalLoop=1;jettySize=auto;html=1;exitX=0.5;exitY=0;exitDx=0;exitDy=0;entryX=0;entryY=0.5;entryDx=0;entryDy=0;" edge="1" parent="1" source="GgnZ6f3uAfLz8zsoU3rS-166" target="GgnZ6f3uAfLz8zsoU3rS-152">
          <mxGeometry relative="1" as="geometry" />
        </mxCell>
        <mxCell id="GgnZ6f3uAfLz8zsoU3rS-166" value="Display:&lt;br&gt;Payment Decline,&lt;br&gt;TRY AGAIN !!" style="rounded=1;whiteSpace=wrap;html=1;" vertex="1" parent="1">
          <mxGeometry x="2270" y="1715" width="120" height="60" as="geometry" />
        </mxCell>
        <mxCell id="GgnZ6f3uAfLz8zsoU3rS-167" value="No" style="text;html=1;align=center;verticalAlign=middle;resizable=0;points=[];autosize=1;strokeColor=none;fillColor=none;" vertex="1" parent="1">
          <mxGeometry x="2400" y="1718" width="40" height="30" as="geometry" />
        </mxCell>
        <mxCell id="GgnZ6f3uAfLz8zsoU3rS-174" value="" style="edgeStyle=orthogonalEdgeStyle;rounded=0;orthogonalLoop=1;jettySize=auto;html=1;" edge="1" parent="1" source="GgnZ6f3uAfLz8zsoU3rS-168" target="GgnZ6f3uAfLz8zsoU3rS-173">
          <mxGeometry relative="1" as="geometry" />
        </mxCell>
        <mxCell id="GgnZ6f3uAfLz8zsoU3rS-168" value="start" style="ellipse;whiteSpace=wrap;html=1;" vertex="1" parent="1">
          <mxGeometry x="3040" y="80" width="120" height="60" as="geometry" />
        </mxCell>
        <mxCell id="GgnZ6f3uAfLz8zsoU3rS-170" value="&lt;font style=&quot;font-size: 14px;&quot;&gt;&lt;b style=&quot;border-color: var(--border-color);&quot;&gt;selfcheckout -&amp;gt;&amp;nbsp;&lt;/b&gt;&lt;b style=&quot;&quot;&gt;perishable_items&lt;/b&gt;&lt;/font&gt;" style="text;html=1;align=center;verticalAlign=middle;resizable=0;points=[];autosize=1;strokeColor=none;fillColor=none;" vertex="1" parent="1">
          <mxGeometry x="1289" y="10" width="240" height="30" as="geometry" />
        </mxCell>
        <mxCell id="GgnZ6f3uAfLz8zsoU3rS-171" value="&lt;b style=&quot;border-color: var(--border-color); font-size: 14px;&quot;&gt;selfcheckout -&amp;gt; non_&lt;/b&gt;&lt;b style=&quot;border-color: var(--border-color); font-size: 14px;&quot;&gt;perishable_items&lt;/b&gt;" style="text;html=1;align=center;verticalAlign=middle;resizable=0;points=[];autosize=1;strokeColor=none;fillColor=none;" vertex="1" parent="1">
          <mxGeometry x="1785.1399999999999" y="10" width="280" height="30" as="geometry" />
        </mxCell>
        <mxCell id="GgnZ6f3uAfLz8zsoU3rS-172" value="&lt;b style=&quot;border-color: var(--border-color); color: rgb(0, 0, 0); font-family: Helvetica; font-size: 14px; font-style: normal; font-variant-ligatures: normal; font-variant-caps: normal; letter-spacing: normal; orphans: 2; text-align: center; text-indent: 0px; text-transform: none; widows: 2; word-spacing: 0px; -webkit-text-stroke-width: 0px; background-color: rgb(251, 251, 251); text-decoration-thickness: initial; text-decoration-style: initial; text-decoration-color: initial;&quot;&gt;selfcheckout -&amp;gt;&amp;nbsp;&lt;/b&gt;&lt;b style=&quot;border-color: var(--border-color); color: rgb(0, 0, 0); font-family: Helvetica; font-size: 14px; font-style: normal; font-variant-ligatures: normal; font-variant-caps: normal; letter-spacing: normal; orphans: 2; text-align: center; text-indent: 0px; text-transform: none; widows: 2; word-spacing: 0px; -webkit-text-stroke-width: 0px; background-color: rgb(251, 251, 251); text-decoration-thickness: initial; text-decoration-style: initial; text-decoration-color: initial;&quot;&gt;payment&lt;/b&gt;" style="text;whiteSpace=wrap;html=1;" vertex="1" parent="1">
          <mxGeometry x="2510" y="5" width="250" height="40" as="geometry" />
        </mxCell>
        <mxCell id="GgnZ6f3uAfLz8zsoU3rS-176" value="" style="edgeStyle=orthogonalEdgeStyle;rounded=0;orthogonalLoop=1;jettySize=auto;html=1;" edge="1" parent="1" source="GgnZ6f3uAfLz8zsoU3rS-173" target="GgnZ6f3uAfLz8zsoU3rS-175">
          <mxGeometry relative="1" as="geometry" />
        </mxCell>
        <mxCell id="GgnZ6f3uAfLz8zsoU3rS-173" value="Start the execution of&amp;nbsp;selfcheckout -&amp;gt; perishable_items" style="whiteSpace=wrap;html=1;" vertex="1" parent="1">
          <mxGeometry x="3040" y="220" width="120" height="60" as="geometry" />
        </mxCell>
        <mxCell id="GgnZ6f3uAfLz8zsoU3rS-178" value="" style="edgeStyle=orthogonalEdgeStyle;rounded=0;orthogonalLoop=1;jettySize=auto;html=1;" edge="1" parent="1" source="GgnZ6f3uAfLz8zsoU3rS-175" target="GgnZ6f3uAfLz8zsoU3rS-177">
          <mxGeometry relative="1" as="geometry" />
        </mxCell>
        <mxCell id="GgnZ6f3uAfLz8zsoU3rS-175" value="Start the execution of&amp;nbsp;selfcheckout -&amp;gt; non_perishable_items" style="whiteSpace=wrap;html=1;" vertex="1" parent="1">
          <mxGeometry x="3040" y="360" width="120" height="60" as="geometry" />
        </mxCell>
        <mxCell id="GgnZ6f3uAfLz8zsoU3rS-180" value="" style="edgeStyle=orthogonalEdgeStyle;rounded=0;orthogonalLoop=1;jettySize=auto;html=1;" edge="1" parent="1" source="GgnZ6f3uAfLz8zsoU3rS-177" target="GgnZ6f3uAfLz8zsoU3rS-179">
          <mxGeometry relative="1" as="geometry" />
        </mxCell>
        <mxCell id="GgnZ6f3uAfLz8zsoU3rS-177" value="Start the execution of&amp;nbsp;selfcheckout -&amp;gt; non_perishable_items" style="whiteSpace=wrap;html=1;" vertex="1" parent="1">
          <mxGeometry x="3040" y="500" width="120" height="60" as="geometry" />
        </mxCell>
        <mxCell id="GgnZ6f3uAfLz8zsoU3rS-182" value="" style="edgeStyle=orthogonalEdgeStyle;rounded=0;orthogonalLoop=1;jettySize=auto;html=1;" edge="1" parent="1" source="GgnZ6f3uAfLz8zsoU3rS-179" target="GgnZ6f3uAfLz8zsoU3rS-181">
          <mxGeometry relative="1" as="geometry" />
        </mxCell>
        <mxCell id="GgnZ6f3uAfLz8zsoU3rS-179" value="Start the execution of&amp;nbsp;selfcheckout -&amp;gt; payment" style="whiteSpace=wrap;html=1;" vertex="1" parent="1">
          <mxGeometry x="3040" y="640" width="120" height="60" as="geometry" />
        </mxCell>
        <mxCell id="GgnZ6f3uAfLz8zsoU3rS-184" value="" style="edgeStyle=orthogonalEdgeStyle;rounded=0;orthogonalLoop=1;jettySize=auto;html=1;" edge="1" parent="1" source="GgnZ6f3uAfLz8zsoU3rS-181" target="GgnZ6f3uAfLz8zsoU3rS-183">
          <mxGeometry relative="1" as="geometry" />
        </mxCell>
        <mxCell id="GgnZ6f3uAfLz8zsoU3rS-181" value="update selfcheckout structure" style="whiteSpace=wrap;html=1;" vertex="1" parent="1">
          <mxGeometry x="3040" y="780" width="120" height="60" as="geometry" />
        </mxCell>
        <mxCell id="GgnZ6f3uAfLz8zsoU3rS-183" value="End" style="strokeWidth=2;html=1;shape=mxgraph.flowchart.start_1;whiteSpace=wrap;" vertex="1" parent="1">
          <mxGeometry x="3050" y="890" width="100" height="60" as="geometry" />
        </mxCell>
      </root>
    </mxGraphModel>
  </diagram>
</mxfile>
